<svg xmlns="http://www.w3.org/2000/svg" xmlns:xlink="http://www.w3.org/1999/xlink" version="1.1" x="0px" y="0px" viewBox="0 0 100 100" enable-background="new 0 0 100 100" xml:space="preserve"><path fill="#000000" d="M83.6,30.1c-0.5,0-0.9,0.2-1.3,0.5c-0.7,0.7-0.7,1.9,0,2.6c0.7,0.7,1.9,0.7,2.6,0  C86,32.1,85.1,30.1,83.6,30.1z"/><path fill="#000000" d="M58.5,37.5l2.3-2.3c0,0-6.8-6.8-6.8-6.8l-3.8-3.8v6.8l-3,3l-4.1-4.1l2-2L44,27.1l-5.1,5.1l1.1,1.1l2-2  l4.1,4.1l-5.4,5.4l-6.4-6.4l1.7-1.7l1.1-1.1L34.5,29l-1.1,1.1l1.5,1.5l-1.7,1.7l-1.5-1.5L30.5,33l1.5,1.5l-1.7,1.7l-1.5-1.5  l-1.1,1.1l2.7,2.7l1.1-1.1l1.7-1.7l6.4,6.4l-5.3,5.3l6.3,6.3L38.2,56l-9.1-9.1l-5.7,5.7l9.1,9.1l-3.8,3.8l3.6,8.2l26.8-26.8  c0.5-0.5,0.6-1.1,0.7-1.8c0.1-0.8,0.1-1.7,0-2.5C59.6,40.8,59.1,39.1,58.5,37.5z M52.9,44.4c-0.9,0.9-2,1.3-3.1,1.3  c-1.2,0-2.3-0.5-3.1-1.3c-1.7-1.7-1.7-4.5,0-6.3c0.9-0.9,2-1.3,3.1-1.3s2.3,0.4,3.1,1.3C54.6,39.8,54.6,42.6,52.9,44.4z"/><path fill="#000000" d="M49.7,38.6c-1.5,0-2.7,1.2-2.7,2.7c0,1.5,1.2,2.7,2.7,2.7c2,0,3.3-2.3,2.3-4C51.5,39.1,50.6,38.6,49.7,38.6z  "/><path fill="#000000" d="M76.5,37.2c-0.5,0-0.9,0.2-1.3,0.5c-0.7,0.7-0.7,1.9,0,2.6c0.7,0.7,1.9,0.7,2.6,0  C78.9,39.1,78.1,37.2,76.5,37.2z"/><path fill="#000000" d="M69.5,44.2c-0.5,0-0.9,0.2-1.3,0.5c-0.9,0.9-0.5,2.7,0.7,3c0.4,0.1,0.9,0.1,1.2-0.1c0.8-0.3,1.3-1.2,1-2.1  C71,44.8,70.4,44.2,69.5,44.2z"/><rect x="19" y="44.4" transform="matrix(0.7071 -0.7071 0.7071 0.7071 -26.125 29.8432)" fill="#000000" width="8" height="4.2"/><polygon points="82.1,77.4 52,82.6 32.7,79.6 16.8,84.2 15.6,91.6 83.2,91.6 89.4,84.5 "/><circle cx="67.8" cy="20.1" r="2.5"/><circle cx="61.5" cy="24.7" r="1.7"/><path d="M63,10.3c-1.6,0-3,1.3-3,3s1.3,3,3,3c1.6,0,3-1.3,3-3S64.6,10.3,63,10.3z"/><path fill="#000000" d="M33.2,75.6l18.8,2.9l8.4-1.4l4.5-4.5l2.3-4.8l-5-1.8l5-1.8l-2.3-4.8l4.8,2.3l1.8-5l1.8,5l4.8-2.3l11-11  c2.6-2.6,3.7-6.3,3-10.2l-4.7-26.7L60.8,38c0.6,2,2.2,7.8-0.3,10.3L33.2,75.6z M83.6,28.8c1.3,0,2.5,0.8,2.9,2  c0.6,1.6-0.2,3.5-1.8,4.1c-1.8,0.7-3.9-0.4-4.3-2.2C80,30.7,81.6,28.8,83.6,28.8z M76.5,35.8c1.3,0,2.5,0.8,2.9,2  c0.6,1.6-0.2,3.5-1.8,4.1c-1.8,0.7-3.9-0.4-4.3-2.2C73,37.7,74.6,35.9,76.5,35.8z M69.5,42.8c0.8,0,1.6,0.3,2.3,0.9  c1.2,1.2,1.2,3.3,0,4.5c-1.2,1.2-3.3,1.2-4.5,0C65.3,46.3,66.7,42.8,69.5,42.8z"/></svg>