<svg xmlns="http://www.w3.org/2000/svg" xmlns:xlink="http://www.w3.org/1999/xlink" version="1.1" x="0px" y="0px" viewBox="0 0 100 70" enable-background="new 0 0 100 100" xml:space="preserve"><path fill="#000000" stroke="#ED1C24" stroke-width="0.5" stroke-miterlimit="10" d="M92.167,51.542"/><path fill="#000000" stroke="#ED1C24" stroke-width="0.5" stroke-miterlimit="10" d="M17.016,54.703"/><path fill="#000000" stroke="#ED1C24" stroke-width="0.5" stroke-miterlimit="10" d="M48.921,46.5"/><path fill="#000000" stroke="#ED1C24" stroke-width="0.5" stroke-miterlimit="10" d="M42.338,46.562"/><path d="M4.375,60.986"/><path d="M7.359,60.986l-4.469-4.518l14.131,0.016l-0.006-1.781h12.026l-0.01-2.453h12.01L41,49.625h1.338v-3.062H48l0.689-12.401  H46.25l0.012-0.643h2.426l0.125-4.331h0.396l0.083,4.274h2.271l0.021,0.7h-2.242L50,46.562h3.453l-0.041-4.782  c-0.576-0.269-0.975-0.853-0.975-1.53l0,0c0-0.932,0.756-1.688,1.688-1.688h1.146c0.932,0,1.688,0.755,1.688,1.688l0,0  c0,0.654-0.373,1.222-0.918,1.501l0.021,4.624h2.804v4.188h9.071v0.968l24.229,0.012l2.82-0.167l-7.237,9.611"/><path d="M7.359,55.688h6.469v-4.5C13.828,51.188,7.453,51.001,7.359,55.688z"/><path d="M27.38,53.896h-6.469v-4.5C20.912,49.396,27.287,49.209,27.38,53.896z"/><path d="M79.771,51h-6.469v-4.5C73.302,46.5,79.677,46.313,79.771,51z"/><path d="M8.635,51.979L4.74,50.562l-0.235,0.646l3.486,1.269C7.99,52.477,8.294,52.175,8.635,51.979z"/><path d="M25.903,50.145l3.896-1.418l0.235,0.646l-3.486,1.269C26.548,50.642,26.244,50.34,25.903,50.145z"/><path d="M78.236,47.21l3.896-1.418l0.235,0.646l-3.486,1.269C78.881,47.708,78.577,47.406,78.236,47.21z"/></svg>