<?xml version="1.0" encoding="utf-8"?>
<!-- Svg Vector Icons : http://www.onlinewebfonts.com/icon -->
<!DOCTYPE svg PUBLIC "-//W3C//DTD SVG 1.1//EN" "http://www.w3.org/Graphics/SVG/1.1/DTD/svg11.dtd">
<svg version="1.1" xmlns="http://www.w3.org/2000/svg" xmlns:xlink="http://www.w3.org/1999/xlink" x="0px" y="0px" viewBox="0 0 1000 1000" enable-background="new 0 0 1000 1000" xml:space="preserve">
<metadata> Svg Vector Icons : http://www.onlinewebfonts.com/icon </metadata>
<g><g transform="translate(0.000000,512.000000) scale(0.100000,-0.100000)">
<path style="fill:red;" d="M4689.9,4451.5l-5.7-568.5l-187.6-23c-1064.2-134-2061.4-769.4-2662.5-1695.9c-296.7-457.5-516.8-1073.8-578-1617.4l-13.4-120.6H672.3H100V120v-306.3h570.4h570.4l34.5-223.9c185.7-1259.5,974.3-2323.7,2126.5-2869.2c346.4-164.6,771.4-289,1091-323.5c63.2-5.7,134-15.3,158.9-21l42.1-7.7v-574.2V-4780H5000h306.3v572.3c0,625.9-5.7,595.3,114.8,595.3c90,0,382.8,55.5,574.2,109.1c899.6,250.7,1657.6,809.6,2166.7,1594.4c302.4,465.1,514.9,1054.6,581.9,1611.6l11.5,111h572.3H9900V120v306.3h-572.3h-570.4l-13.4,120.6c-78.5,694.8-392.4,1439.4-832.6,1965.7c-618.2,742.7-1493,1232.7-2407.9,1347.5l-187.6,23l-5.7,568.5l-3.8,568.5H5000h-306.3L4689.9,4451.5z M5310.1,3151.9l5.7-740.7l162.7-32.5c671.8-137.8,1249.9-581.9,1565.7-1202c103.4-201,204.8-493.8,225.8-650.8l13.4-99.5h731.2h731.2l13.4-70.8c15.3-93.8,15.3-340.7,0-453.6l-13.4-88h-731.2h-731.2l-21.1-122.5c-126.3-681.4-601-1303.5-1244.1-1627c-157-78.5-426.8-172.3-558.9-193.3c-170.4-24.9-153.1,59.3-153.1-767.5v-735H5000h-306.3v736.9v736.9l-51.7,9.6c-541.7,111-949.4,323.5-1292,673.8c-308.2,315.8-534,748.4-612.5,1165.7l-21,122.5h-731.2h-731.2l-13.4,72.7c-15.3,91.9-15.3,403.9,0,480.4l13.4,59.3h729.3h731.2l23,130.2c151.2,882.4,890,1636.5,1783.9,1822.2l162.7,32.5l5.7,740.7l3.8,738.8H5000h306.3L5310.1,3151.9z"/><path d="M4760.7,1806.3c-583.8-97.6-1048.9-444.1-1292-962.8c-210.5-451.7-206.7-1018.3,9.6-1452.8c227.8-453.6,597.2-759.9,1094.8-901.5c214.4-61.3,639.3-61.3,853.7,0c620.2,178,1073.8,643.1,1219.3,1249.9c51.7,220.1,51.7,560.8,0,780.9C6498.7,1130.6,6024,1613,5413.4,1768C5243.1,1812,4912,1831.2,4760.7,1806.3z"/></g></g>
</svg>